<?xml version="1.0" encoding="UTF-8"?><svg id="Ebene_1" xmlns="http://www.w3.org/2000/svg" xmlns:xlink="http://www.w3.org/1999/xlink" viewBox="0 0 1024 1024"><defs><style>.cls-1{stroke:#393938;stroke-width:7.45px;}.cls-1,.cls-2,.cls-3,.cls-4{fill:none;stroke-miterlimit:10;}.cls-2{stroke:#ef7d2f;}.cls-2,.cls-3,.cls-4{stroke-linecap:round;}.cls-2,.cls-4{stroke-width:8.01px;}.cls-3{stroke-width:16.03px;}.cls-3,.cls-4{stroke:#fff;}.cls-5{fill:#c5c5c6;}.cls-6{fill:#393938;}.cls-7{fill:#ef7d2f;}</style><symbol id="Neues_Symbol" viewBox="0 0 512 512"><circle class="cls-6" cx="256" cy="256" r="256"/><path class="cls-7" d="M216.27,275.83l44.2,16.58c9.73,3.65,20.63,2.44,29.33-3.25l104.9-68.67v-114.89l-56.85,56.85c-4.82,4.82-12.28,5.78-18.16,2.35l-5.75-3.35c-6.3-3.67-14.33-2.29-19.03,3.29l-33.16,39.34c-5.66,6.72-15.86,7.15-22.08.94l-30.85-30.85c-5.86-5.86-15.35-5.86-21.21,0l-82.69,82.69v65.92l84.52-45.16c8.27-4.42,18.05-5.07,26.83-1.77Z"/><path class="cls-5" d="M394.69,256.3v137.8H99.26v-49.83l90.18-48.18c8.27-4.42,18.05-5.07,26.83-1.77l44.2,16.58c9.74,3.65,20.63,2.44,29.33-3.25l104.9-68.67v17.33Z"/><line class="cls-1" x1="101.26" y1="394.1" x2="413.07" y2="394.1"/><line class="cls-1" x1="101.26" y1="326.84" x2="413.07" y2="326.84"/><line class="cls-1" x1="101.26" y1="259.58" x2="413.07" y2="259.58"/><line class="cls-1" x1="413.07" y1="192.31" x2="101.26" y2="192.31"/><line class="cls-1" x1="101.26" y1="125.05" x2="413.07" y2="125.05"/><path class="cls-2" d="M104.92,234.39l82.69-82.69c5.86-5.86,15.35-5.86,21.21,0l30.85,30.85c6.21,6.21,16.41,5.78,22.08-.94l33.16-39.34c4.7-5.58,12.73-6.96,19.03-3.29l5.75,3.35c5.89,3.43,13.35,2.47,18.16-2.35l56.85-56.85"/><path class="cls-4" d="M99.26,325.78l90.18-48.18c8.27-4.42,18.05-5.07,26.83-1.77l44.2,16.58c9.74,3.65,20.63,2.44,29.33-3.25l123.28-80.7"/><polyline class="cls-3" points="415.07 394.1 101.26 394.1 101.26 125.05"/></symbol></defs><use width="512" height="512" transform="translate(0 0) scale(2)" xlink:href="#Neues_Symbol"/></svg>