<?xml version="1.0" encoding="UTF-8"?><svg id="Ebene_1" xmlns="http://www.w3.org/2000/svg" xmlns:xlink="http://www.w3.org/1999/xlink" viewBox="0 0 1024 1024"><defs><style>.cls-1{fill:url(#Unbenannter_Verlauf_20);}.cls-2,.cls-3{stroke-width:6.87px;}.cls-2,.cls-3,.cls-4,.cls-5{fill:none;stroke-miterlimit:10;}.cls-2,.cls-3,.cls-5{stroke-linecap:round;}.cls-2,.cls-5{stroke:#fff;}.cls-6{fill:url(#Unbenannter_Verlauf_8);}.cls-3{stroke:#ef7d2f;}.cls-7{fill:url(#Unbenannter_Verlauf_7);}.cls-8{fill:url(#Unbenannter_Verlauf_6);}.cls-9{fill:#c5c5c6;}.cls-10{fill:#393938;}.cls-4{stroke:#393938;stroke-width:6.39px;}.cls-11{fill:#ef7d2f;}.cls-12{fill:url(#Unbenannter_Verlauf_4);}.cls-13{fill:url(#Unbenannter_Verlauf_4-2);}.cls-5{stroke-width:13.74px;}</style><linearGradient id="Unbenannter_Verlauf_7" x1="389.35" y1="687.36" x2="234.87" y2="187.63" gradientUnits="userSpaceOnUse"><stop offset="0" stop-color="#181716"/><stop offset=".45" stop-color="#181716" stop-opacity=".68"/><stop offset="1" stop-color="#181716" stop-opacity="0"/></linearGradient><linearGradient id="Unbenannter_Verlauf_6" x1="371.79" y1="545.27" x2="324.98" y2="431.75" gradientUnits="userSpaceOnUse"><stop offset="0" stop-color="#181716"/><stop offset=".21" stop-color="#181716" stop-opacity=".57"/><stop offset=".58" stop-color="#181716" stop-opacity=".14"/><stop offset="1" stop-color="#181716" stop-opacity="0"/></linearGradient><linearGradient id="Unbenannter_Verlauf_8" x1="216.1" y1="243.5" x2="461.34" y2="571.72" gradientUnits="userSpaceOnUse"><stop offset=".47" stop-color="#fdffff" stop-opacity="0"/><stop offset=".55" stop-color="#fdffff" stop-opacity=".01"/><stop offset=".62" stop-color="#fdffff" stop-opacity=".05"/><stop offset=".69" stop-color="#fdffff" stop-opacity=".12"/><stop offset=".75" stop-color="#fdffff" stop-opacity=".21"/><stop offset=".8" stop-color="#fdffff" stop-opacity=".33"/><stop offset=".86" stop-color="#fdffff" stop-opacity=".48"/><stop offset=".91" stop-color="#fdffff" stop-opacity=".66"/><stop offset=".97" stop-color="#fdffff" stop-opacity=".86"/><stop offset="1" stop-color="#fdffff"/></linearGradient><linearGradient id="Unbenannter_Verlauf_4" x1="95.9" y1="-29.7" x2="326.45" y2="362.94" gradientUnits="userSpaceOnUse"><stop offset="0" stop-color="#181716"/><stop offset=".13" stop-color="#181716" stop-opacity=".65"/><stop offset=".4" stop-color="#181716" stop-opacity=".16"/><stop offset=".67" stop-color="#181716" stop-opacity="0"/></linearGradient><linearGradient id="Unbenannter_Verlauf_4-2" x1="107.17" y1="-36.32" x2="337.73" y2="356.32" xlink:href="#Unbenannter_Verlauf_4"/><linearGradient id="Unbenannter_Verlauf_20" x1="290.1" y1="301.02" x2="118.64" y2="-57.09" gradientUnits="userSpaceOnUse"><stop offset=".02" stop-color="#fdffff" stop-opacity="0"/><stop offset=".39" stop-color="#fdffff" stop-opacity="0"/><stop offset=".52" stop-color="#fdffff" stop-opacity=".03"/><stop offset=".61" stop-color="#fdffff" stop-opacity=".08"/><stop offset=".69" stop-color="#fdffff" stop-opacity=".15"/><stop offset=".75" stop-color="#fdffff" stop-opacity=".23"/><stop offset=".81" stop-color="#fdffff" stop-opacity=".34"/><stop offset=".86" stop-color="#fdffff" stop-opacity=".47"/><stop offset=".91" stop-color="#fdffff" stop-opacity=".61"/><stop offset=".95" stop-color="#fdffff" stop-opacity=".78"/><stop offset=".99" stop-color="#fdffff" stop-opacity=".96"/><stop offset="1" stop-color="#fdffff"/></linearGradient><symbol id="Neues_Symbol_1" viewBox="0 0 512 512"><circle class="cls-10" cx="256" cy="256" r="256"/><circle class="cls-7" cx="256" cy="256" r="256"/><path class="cls-8" d="M471.78,238.33c-3.09,123.34-105.55,222.52-228.93,221.75-71.77-.45-135.65-34.12-177.05-86.41-3.07-3.87-8.99.11-6.57,4.42,38.37,68.36,111.01,114.89,194.64,116.3,125.11,2.11,229.41-98.64,231.44-223.75.3-18.75-1.66-36.98-5.64-54.46-1.15-5.04-8.65-3.92-8.31,1.24.45,6.89.6,13.87.42,20.91Z"/><path class="cls-6" d="M257.72,486.95c-1.24,0-2.49-.01-3.73-.03-62.56-1.06-121.39-29.05-161.93-75.28,41.74,35.59,94.7,55.55,150.73,55.9h1.47c119.31,0,219.91-91.52,233.49-207.98.12,3.65.15,7.3.09,10.95-1.94,119.34-100.69,216.44-220.12,216.44Z"/><path class="cls-12" d="M461.89,131.43C421.51,59.5,345.06,10.53,257.04,9.04,125.38,6.82,15.61,112.85,13.47,244.52c-.32,19.73,1.75,38.92,5.93,57.31,1.21,5.31,9.11,4.12,8.75-1.31-.48-7.25-.63-14.59-.44-22.01.43-17.18,2.71-33.91,6.61-50.02C43.66,115.9,139.12,26.57,253.67,26.57c1.24,0,2.49.01,3.73.03,58.89.99,114.47,25.86,154.6,67.34,16.03,12.2,30.48,26.36,42.97,42.14,3.23,4.08,9.46-.11,6.92-4.65Z"/><path class="cls-13" d="M257.4,26.6c-1.24-.02-2.49-.03-3.73-.03-114.55,0-210.01,89.33-219.34,201.92C59.91,122.92,155.99,44.44,268.64,45.14c53.87.34,103.5,18.47,143.35,48.8-40.13-41.48-95.71-66.34-154.6-67.34Z"/><path class="cls-1" d="M257.4,26.6c-1.24-.02-2.49-.03-3.73-.03-114.55,0-210.01,89.33-219.34,201.92C59.91,122.92,155.99,44.44,268.64,45.14c53.87.34,103.5,18.47,143.35,48.8-40.13-41.48-95.71-66.34-154.6-67.34Z"/><path class="cls-11" d="M222.11,270.51l37.88,14.21c8.34,3.13,17.68,2.09,25.13-2.79l89.9-58.85v-98.47l-48.72,48.72c-4.13,4.13-10.52,4.96-15.57,2.01l-4.93-2.88c-5.4-3.15-12.28-1.96-16.31,2.82l-28.42,33.72c-4.85,5.76-13.59,6.13-18.92.81l-26.44-26.44c-5.02-5.02-13.16-5.02-18.18,0l-70.87,70.87v56.49l72.44-38.7c7.09-3.79,15.47-4.34,22.99-1.52Z"/><path class="cls-9" d="M375.03,253.77v118.09H121.84v-42.71l77.28-41.29c7.09-3.79,15.47-4.34,22.99-1.52l37.88,14.21c8.34,3.13,17.68,2.09,25.13-2.79l89.9-58.85v14.85Z"/><line class="cls-4" x1="123.55" y1="371.87" x2="390.78" y2="371.87"/><line class="cls-4" x1="123.55" y1="314.22" x2="390.78" y2="314.22"/><line class="cls-4" x1="123.55" y1="256.58" x2="390.78" y2="256.58"/><line class="cls-4" x1="390.78" y1="198.93" x2="123.55" y2="198.93"/><line class="cls-4" x1="123.55" y1="141.29" x2="390.78" y2="141.29"/><path class="cls-3" d="M126.68,235l70.87-70.87c5.02-5.02,13.16-5.02,18.18,0l26.44,26.44c5.32,5.32,14.07,4.95,18.92-.81l28.42-33.72c4.03-4.78,10.91-5.97,16.31-2.82l4.93,2.88c5.04,2.94,11.44,2.12,15.57-2.01l48.72-48.72"/><path class="cls-2" d="M121.84,313.32l77.28-41.29c7.09-3.79,15.47-4.34,22.99-1.52l37.88,14.21c8.34,3.13,17.68,2.09,25.13-2.79l105.65-69.16"/><polyline class="cls-5" points="392.5 371.87 123.55 371.87 123.55 141.29"/></symbol></defs><use width="512" height="512" transform="scale(2)" xlink:href="#Neues_Symbol_1"/></svg>